<svg xmlns="http://www.w3.org/2000/svg" width="1400" height="1400" viewBox="0 0 1400 1400" version="1.1"><path d="M 623.500 443.470 C 611.769 446.032, 599.592 453.468, 593.556 461.756 C 585.405 472.946, 581.619 485.125, 580.015 505.320 C 576.180 553.570, 573.158 566.623, 557.748 601.500 C 545.213 629.868, 542.120 642.513, 543.906 658.082 C 545.028 667.859, 546.766 672.525, 551.146 677.514 C 557.963 685.277, 564.864 686.973, 589.712 686.988 C 606.951 686.999, 609.516 686.779, 614.681 684.846 C 623.245 681.642, 630.052 674.433, 632.478 666 C 634.832 657.813, 635.081 639.692, 633.083 621.829 C 631.779 610.166, 631.800 608.954, 633.356 606.579 C 634.962 604.128, 635.486 604, 643.912 604 C 655.706 604, 657.546 605.318, 657.393 613.661 C 656.636 655.108, 656.644 655.528, 658.309 662.271 C 661.837 676.561, 667.485 682.902, 678.595 685.050 C 689.073 687.076, 718.048 686.897, 725.027 684.763 C 736.815 681.160, 743.983 671.011, 744.808 656.755 C 745.643 642.325, 742.282 629.912, 728.730 597.391 C 715.580 565.833, 711.830 551.504, 710.019 525.904 C 706.860 481.234, 706.265 477.920, 699.276 466.127 C 692.202 454.188, 681.313 446.443, 667.483 443.514 C 658.686 441.650, 631.951 441.624, 623.500 443.470 M 815.599 443.577 C 790.298 447.511, 772.435 456.273, 767.054 467.388 C 762.465 476.869, 762.460 490.345, 767.041 507.107 C 778.906 550.523, 778.666 578.450, 766.068 620.500 C 759.778 641.493, 758.776 646.085, 758.756 654.009 C 758.731 663.984, 761.462 670.397, 768.449 676.770 C 776.768 684.357, 783.073 686.185, 802.918 686.764 C 820.884 687.288, 827.201 686.426, 835.286 682.345 C 842.403 678.753, 847.972 673.219, 851.088 666.640 C 856.914 654.341, 855.741 640.877, 847.040 620.190 C 840.722 605.170, 839.025 599.714, 839.011 594.372 C 838.994 587.945, 839.730 587.716, 856.172 589.028 C 869.371 590.081, 871.288 590.009, 880.500 588.119 C 911.561 581.746, 931.954 559.059, 936.018 526.354 C 938.807 503.914, 931.328 482.366, 915.027 465.873 C 907.790 458.551, 905.063 456.554, 897 452.672 C 887.088 447.899, 876.377 444.724, 864.500 443.035 C 854.577 441.624, 826.134 441.940, 815.599 443.577 M 843.143 497.533 C 839.796 500.349, 838.462 503.805, 837.530 512.065 C 836.819 518.372, 838.377 529.895, 840.495 533.991 C 842.642 538.143, 848.182 540.363, 854.385 539.558 C 871.460 537.341, 879.470 515.972, 868.579 501.692 C 864.887 496.853, 860.485 495, 852.676 495 C 847.155 495, 845.691 495.389, 843.143 497.533 M 641.426 515.483 C 638.222 518.687, 635.248 525.690, 633.439 534.291 C 631.910 541.560, 631.526 554.707, 632.786 556.687 C 634.143 558.822, 638.997 560, 646.430 560 C 656.019 560, 658.584 558.183, 659.513 550.732 C 660.330 544.182, 658.497 530.403, 655.877 523.400 C 653.774 517.781, 649.178 513, 645.878 513 C 644.795 513, 642.792 514.117, 641.426 515.483" stroke="none" fill="#fcfcfc" fill-rule="evenodd"/><path d="M 432.833 100.447 C 424.799 102.207, 421.347 103.738, 414.351 108.644 C 408.043 113.068, 403.546 118.014, 400.606 123.760 C 394.335 136.017, 393.224 152.523, 397.524 169.523 C 399.983 179.246, 400.893 181.992, 406.464 196.500 C 414.195 216.632, 419 250.900, 419 285.908 L 419 293.308 394.250 292.678 C 380.637 292.332, 366.350 291.576, 362.500 290.997 C 353.721 289.677, 331.654 284.401, 327 282.508 C 323.638 281.141, 314.639 278.428, 303 275.272 C 299.852 274.418, 293.224 273.778, 287.500 273.776 C 278.833 273.772, 276.700 274.127, 271.500 276.434 C 260.484 281.323, 253.441 290.689, 250.394 304.500 C 248.739 312, 248.555 344.804, 250.125 352.201 C 252.733 364.481, 259.810 373.576, 270.783 378.750 C 276.028 381.223, 277.531 381.447, 289 381.467 C 302.445 381.491, 305.845 380.751, 325.500 373.518 C 330.450 371.697, 338.325 369.266, 343 368.116 C 353.418 365.554, 383.911 363, 404.079 363 L 419 363 418.980 443.750 C 418.960 524.516, 418.391 540.934, 415.125 555 C 414.551 557.475, 413.141 563.550, 411.993 568.500 C 410.845 573.450, 409.281 579.300, 408.518 581.500 C 405.942 588.927, 400.098 608.437, 397.541 618.150 C 394.001 631.595, 393.948 646.805, 397.407 656.343 C 404.022 674.580, 418.662 684.151, 444.211 686.940 C 462.552 688.942, 485.706 688.015, 498 684.786 C 503.035 683.464, 512.191 678.560, 516.306 674.982 C 520.874 671.010, 525.946 662.746, 528.563 655.013 C 534.196 638.361, 532.392 623.686, 520.940 593 C 514.706 576.297, 511.440 561.906, 509.476 542.500 C 508.382 531.688, 508.053 509.780, 508.030 446.295 L 508 364.091 511.419 363.449 C 515.572 362.670, 555.755 364.626, 565.500 366.081 C 576.642 367.746, 588.007 370.744, 611 378.085 C 623.980 382.229, 625.001 382.397, 637.500 382.447 C 649.677 382.495, 650.817 382.331, 655.508 379.855 C 664.296 375.216, 669.469 368.972, 673.613 358 C 676.423 350.563, 676.447 350.306, 676.461 327.500 L 676.475 304.500 673.533 297.500 C 667.485 283.113, 653.479 274.162, 636.815 274.036 C 628.786 273.975, 614.105 277.576, 601.876 282.606 C 594.082 285.812, 574.310 290.588, 563.387 291.903 C 558.374 292.506, 543.569 293, 530.486 293 L 506.698 293 507.402 272.969 C 508.169 251.178, 509.675 237.724, 512.997 223 C 515.035 213.966, 520.714 194.523, 523.513 187 C 524.230 185.075, 525.786 179.675, 526.972 175 C 528.158 170.325, 529.599 164.707, 530.175 162.514 C 533.316 150.552, 531.915 135.278, 526.708 124.723 C 520.663 112.469, 507.624 103.938, 489.500 100.378 C 480.502 98.610, 440.996 98.658, 432.833 100.447 M 998.275 277.036 C 985.825 279.743, 979.665 295.700, 987.061 306.086 C 988.188 307.669, 992.123 310.607, 995.805 312.615 C 1017.990 324.714, 1032.030 334.907, 1047.836 350.393 C 1071.422 373.501, 1087.121 397.199, 1099.247 428 C 1111.079 458.052, 1116.126 493.647, 1113.002 525 C 1110.389 551.221, 1105.129 571.053, 1094.120 596.194 C 1088.723 608.519, 1088.018 612.714, 1090.390 618.390 C 1092.995 624.626, 1101.031 629.934, 1107.934 629.978 C 1112.405 630.007, 1119.085 626.731, 1121.649 623.253 C 1124.172 619.830, 1130.604 605.571, 1135.311 592.966 C 1152.342 547.355, 1155.575 495.669, 1144.377 448 C 1138.953 424.907, 1125.773 392.910, 1113.485 373 C 1089.996 334.940, 1055.647 302.610, 1017 282.184 C 1006.924 276.859, 1003.465 275.908, 998.275 277.036 M 959.422 348.418 C 954.990 350.348, 950.255 356.584, 949.087 362.029 C 947.231 370.682, 951.087 377.976, 959.880 382.448 C 983.746 394.584, 1008.004 418.946, 1019.885 442.712 C 1029.642 462.228, 1033.854 478.436, 1034.696 499.700 C 1035.631 523.322, 1032.005 542.881, 1022.973 562.940 C 1017.262 575.624, 1017.427 582.166, 1023.612 588.343 C 1028.097 592.822, 1031.935 594.406, 1038.196 594.360 C 1042.845 594.327, 1044.562 593.808, 1047.532 591.544 C 1052.377 587.848, 1054.135 584.780, 1059.877 570 C 1069.486 545.267, 1072.605 526.556, 1071.694 499.121 C 1071.039 479.393, 1069.096 468.136, 1063.387 451 C 1049.271 408.626, 1018.529 371.724, 980.990 352.093 C 970.500 346.607, 965.527 345.760, 959.422 348.418 M 923.984 418.852 C 916.411 422.877, 911.685 433.061, 913.881 440.623 C 915.466 446.082, 918.093 448.966, 925.331 453.193 C 937.105 460.070, 944.899 468.447, 950.837 480.606 C 958.434 496.162, 958.581 511.650, 951.312 530.500 C 947.312 540.874, 947.332 544.881, 951.416 551.052 C 956.794 559.179, 969.048 561.881, 976.914 556.675 C 981.975 553.327, 987.056 543.237, 990.600 529.500 C 992.666 521.493, 993.195 517.008, 993.256 507 C 993.389 485.341, 988.609 469.485, 976.327 450.843 C 968.117 438.380, 948.629 422.149, 937.101 418.173 C 932.251 416.499, 927.996 416.720, 923.984 418.852 M 638.636 711.636 L 636 714.273 636 741.202 C 636 758.580, 636.383 768.848, 637.080 770.150 C 638.539 772.875, 644.531 775.262, 648 774.500 C 649.536 774.163, 651.627 772.965, 652.646 771.838 C 654.358 769.947, 654.500 767.655, 654.500 741.976 L 654.500 714.161 652.076 711.581 C 648.648 707.932, 642.315 707.958, 638.636 711.636 M 541.360 744.460 C 538.562 746.420, 536.625 751.371, 537.419 754.535 C 538.172 757.534, 577.566 797.207, 582.140 799.572 C 586.129 801.635, 590.287 800.637, 593.473 796.850 C 597.471 792.098, 596.859 788.807, 590.750 782.215 C 579.505 770.080, 553.382 744.797, 551.185 743.922 C 547.796 742.573, 543.738 742.795, 541.360 744.460 M 739.729 743.841 C 736.647 745.059, 697.290 784.886, 695.935 788.158 C 694.800 790.896, 694.880 791.737, 696.569 794.882 C 698.898 799.219, 702.950 801.390, 707.038 800.492 C 709.145 800.029, 716.240 793.593, 731.503 778.302 L 753 756.764 753 752.336 C 753 744.949, 746.863 741.020, 739.729 743.841 M 612.453 824.326 C 601.692 828.472, 597.709 833.694, 573.801 875 C 570.777 880.225, 565.249 889.675, 561.516 896 C 553.604 909.407, 553.245 910.037, 545.266 924.500 C 541.929 930.550, 536.904 939.473, 534.099 944.329 C 531.295 949.185, 529 953.312, 529 953.500 C 529 953.688, 526.702 957.815, 523.892 962.671 C 515.984 976.341, 507.360 994.027, 506.177 999 C 504.977 1004.045, 503.580 1014.393, 501.992 1030 C 499.760 1051.939, 496.512 1078.741, 493.475 1100.282 C 491.425 1114.819, 488.205 1123.781, 482.977 1129.500 C 481.971 1130.600, 480.835 1132.761, 480.453 1134.301 C 479.830 1136.810, 480.475 1137.806, 486.629 1143.841 C 528.835 1185.230, 559.599 1214.746, 561.664 1215.834 C 563.057 1216.567, 565.224 1216.910, 566.480 1216.594 C 568.885 1215.991, 600.587 1184.883, 612.023 1171.905 C 626.279 1155.727, 631.988 1141.553, 634.942 1115 C 636.465 1101.307, 638.016 1046.100, 638.007 1005.872 C 637.999 967.445, 637.978 967.298, 631.455 960.784 C 619.029 948.374, 598.717 956.977, 593.170 977 C 592.636 978.925, 591.710 983.200, 591.111 986.500 C 590.512 989.800, 589.112 997.225, 588 1003 C 586.888 1008.775, 585.535 1015.975, 584.993 1019 C 579.709 1048.517, 574.888 1063.943, 569.314 1069.170 L 566.830 1071.500 564.877 1069.093 C 562.584 1066.265, 562.686 1064.991, 567.535 1036 C 568.409 1030.775, 569.523 1024.025, 570.009 1021 C 574.525 992.932, 578.131 975.284, 580.672 968.824 C 583.613 961.344, 588.363 955.486, 596.196 949.678 C 604.768 943.323, 608.646 939.584, 610.613 935.782 C 612.378 932.369, 630.695 877.390, 634.912 862.851 C 639.094 848.430, 639.152 840.209, 635.119 833.849 C 629.525 825.028, 620.487 821.231, 612.453 824.326 M 669.718 824.072 C 654.787 827.665, 649.840 839.557, 655.030 859.375 C 657.684 869.506, 676.454 925.713, 679.401 932.353 C 682.387 939.081, 685.996 943.243, 692.920 947.946 C 705.564 956.532, 711.741 966.829, 715.146 985 C 715.713 988.025, 716.608 992.750, 717.134 995.500 C 717.660 998.250, 718.492 1002.975, 718.983 1006 C 719.474 1009.025, 720.595 1015.775, 721.475 1021 C 728.598 1063.303, 728.837 1065.746, 726.177 1069.025 L 724.170 1071.500 721.644 1069.131 C 717.310 1065.067, 711.747 1048.622, 708.068 1029 C 707.397 1025.425, 706.460 1020.475, 705.984 1018 C 705.509 1015.525, 704.577 1010.350, 703.913 1006.500 C 698.722 976.406, 696.274 968.598, 690.188 962.728 C 683.994 956.754, 678.843 954.646, 671.963 955.270 C 664.472 955.949, 660.082 958.638, 655.948 965.081 L 652.724 970.106 653.393 1028.803 C 654.521 1127.735, 656.066 1138.832, 672.014 1162.500 C 678.515 1172.147, 711.184 1206.434, 721.740 1214.689 C 726.127 1218.119, 728.065 1217.409, 736.537 1209.265 C 740.408 1205.544, 758.059 1188.635, 775.763 1171.689 C 793.466 1154.743, 808.905 1139.538, 810.071 1137.900 C 812.053 1135.117, 812.086 1134.777, 810.572 1132.711 C 804.773 1124.796, 801.789 1119.324, 800.517 1114.276 C 798.659 1106.898, 794.442 1076.758, 790.965 1046 C 790.375 1040.775, 789.483 1032.900, 788.984 1028.500 C 788.484 1024.100, 787.552 1015.775, 786.912 1010 C 785.790 999.884, 783.518 991.818, 780.011 985.500 C 779.096 983.850, 776.624 979.350, 774.519 975.500 C 772.414 971.650, 769.243 966.025, 767.472 963 C 765.702 959.975, 763.026 955.250, 761.526 952.500 C 755.636 941.703, 727.129 891.419, 719.007 877.500 C 718.044 875.850, 715.032 870.675, 712.313 866 C 696.161 838.233, 689.905 829.796, 682.877 826.310 C 677.118 823.453, 674.289 822.972, 669.718 824.072 M 446.500 1139.849 C 438.045 1145.038, 411.118 1171.826, 406.139 1180 C 401.783 1187.152, 403.748 1192.806, 415.872 1208 C 423.690 1217.798, 467.953 1262.801, 483 1276.251 C 501.013 1292.353, 513.861 1301, 519.771 1301 C 525.143 1301, 530.046 1297.230, 547.553 1279.639 C 567.971 1259.123, 571.075 1254.531, 569.063 1247.817 C 567.075 1241.179, 560.209 1234.109, 487.053 1163.361 C 473.665 1150.413, 462.879 1140.995, 459.316 1139.138 C 456.040 1137.431, 449.883 1137.773, 446.500 1139.849 M 830.092 1140.085 C 826.565 1142.235, 822.824 1145.538, 807.536 1160 C 766.680 1198.647, 725.870 1239.647, 723.694 1244.231 C 720.434 1251.102, 721.619 1255.332, 729.556 1265.155 C 736.105 1273.261, 756.819 1293.910, 762.011 1297.508 C 767.888 1301.580, 771.705 1301.724, 779.125 1298.153 C 788.986 1293.408, 800.336 1283.935, 828.432 1257 C 842.234 1243.768, 844.065 1241.909, 857.587 1227.398 C 863.685 1220.854, 870.565 1213.475, 872.875 1211 C 875.185 1208.525, 879.308 1203.200, 882.038 1199.166 C 886.298 1192.871, 887 1191.146, 887 1186.982 C 887 1182.572, 886.470 1181.466, 881.171 1174.816 C 874.212 1166.082, 852.862 1145.422, 846.314 1141.084 C 840.675 1137.349, 835.139 1137.008, 830.092 1140.085" stroke="none" fill="#148cd4" fill-rule="evenodd"/></svg>