<svg xmlns="http://www.w3.org/2000/svg" width="1400" height="1400" viewBox="0 0 1400 1400" version="1.1"><path d="M 455.833 112.447 C 447.799 114.207, 444.347 115.738, 437.351 120.644 C 431.043 125.068, 426.546 130.014, 423.606 135.760 C 417.335 148.017, 416.224 164.523, 420.524 181.523 C 422.983 191.246, 423.893 193.992, 429.464 208.500 C 437.195 228.632, 442 262.900, 442 297.908 L 442 305.308 417.250 304.678 C 403.637 304.332, 389.350 303.576, 385.500 302.997 C 376.721 301.677, 354.654 296.401, 350 294.508 C 346.638 293.141, 337.639 290.428, 326 287.272 C 322.852 286.418, 316.224 285.778, 310.500 285.776 C 301.833 285.772, 299.700 286.127, 294.500 288.434 C 283.484 293.323, 276.441 302.689, 273.394 316.500 C 271.739 324, 271.555 356.804, 273.125 364.201 C 275.733 376.481, 282.810 385.576, 293.783 390.750 C 299.028 393.223, 300.531 393.447, 312 393.467 C 325.445 393.491, 328.845 392.751, 348.500 385.518 C 353.450 383.697, 361.325 381.266, 366 380.116 C 376.418 377.554, 406.911 375, 427.079 375 L 442 375 441.980 455.750 C 441.960 536.516, 441.391 552.934, 438.125 567 C 437.551 569.475, 436.141 575.550, 434.993 580.500 C 433.845 585.450, 432.281 591.300, 431.518 593.500 C 428.942 600.927, 423.098 620.437, 420.541 630.150 C 417.001 643.595, 416.948 658.805, 420.407 668.343 C 427.022 686.580, 441.662 696.151, 467.211 698.940 C 485.552 700.942, 508.706 700.015, 521 696.786 C 526.035 695.464, 535.191 690.560, 539.306 686.982 C 543.874 683.010, 548.946 674.746, 551.563 667.013 C 557.196 650.361, 555.392 635.686, 543.940 605 C 537.706 588.297, 534.440 573.906, 532.476 554.500 C 531.382 543.688, 531.053 521.780, 531.030 458.295 L 531 376.091 534.419 375.449 C 538.572 374.670, 578.755 376.626, 588.500 378.081 C 599.642 379.746, 611.007 382.744, 634 390.085 C 646.980 394.229, 648.001 394.397, 660.500 394.447 C 672.677 394.495, 673.817 394.331, 678.508 391.855 C 687.296 387.216, 692.469 380.972, 696.613 370 C 699.423 362.563, 699.447 362.306, 699.461 339.500 L 699.475 316.500 696.533 309.500 C 690.485 295.113, 676.479 286.162, 659.815 286.036 C 651.786 285.975, 637.105 289.576, 624.876 294.606 C 617.082 297.812, 597.310 302.588, 586.387 303.903 C 581.374 304.506, 566.569 305, 553.486 305 L 529.698 305 530.402 284.969 C 531.169 263.178, 532.675 249.724, 535.997 235 C 538.035 225.966, 543.714 206.523, 546.513 199 C 547.230 197.075, 548.786 191.675, 549.972 187 C 551.158 182.325, 552.599 176.707, 553.175 174.514 C 556.316 162.552, 554.915 147.278, 549.708 136.723 C 543.663 124.469, 530.624 115.938, 512.500 112.378 C 503.502 110.610, 463.996 110.658, 455.833 112.447 M 1062.275 288.036 C 1049.825 290.743, 1043.665 306.700, 1051.061 317.086 C 1052.188 318.669, 1056.123 321.607, 1059.805 323.615 C 1081.990 335.714, 1096.030 345.907, 1111.836 361.393 C 1135.422 384.501, 1151.121 408.199, 1163.247 439 C 1175.079 469.052, 1180.126 504.647, 1177.002 536 C 1174.389 562.221, 1169.129 582.053, 1158.120 607.194 C 1152.723 619.519, 1152.018 623.714, 1154.390 629.390 C 1156.995 635.626, 1165.031 640.934, 1171.934 640.978 C 1176.405 641.007, 1183.085 637.731, 1185.649 634.253 C 1188.172 630.830, 1194.604 616.571, 1199.311 603.966 C 1216.342 558.355, 1219.575 506.669, 1208.377 459 C 1202.953 435.907, 1189.773 403.910, 1177.485 384 C 1153.996 345.940, 1119.647 313.610, 1081 293.184 C 1070.924 287.859, 1067.465 286.908, 1062.275 288.036 M 1023.422 359.418 C 1018.990 361.348, 1014.255 367.584, 1013.087 373.029 C 1011.231 381.682, 1015.087 388.976, 1023.880 393.448 C 1047.746 405.584, 1072.004 429.946, 1083.885 453.712 C 1093.642 473.228, 1097.854 489.436, 1098.696 510.700 C 1099.631 534.322, 1096.005 553.881, 1086.973 573.940 C 1081.262 586.624, 1081.427 593.166, 1087.612 599.343 C 1092.097 603.822, 1095.935 605.406, 1102.196 605.360 C 1106.845 605.327, 1108.562 604.808, 1111.532 602.544 C 1116.377 598.848, 1118.135 595.780, 1123.877 581 C 1133.486 556.267, 1136.605 537.556, 1135.694 510.121 C 1135.039 490.393, 1133.096 479.136, 1127.387 462 C 1113.271 419.626, 1082.529 382.724, 1044.990 363.093 C 1034.500 357.607, 1029.527 356.760, 1023.422 359.418 M 987.984 429.852 C 980.411 433.877, 975.685 444.061, 977.881 451.623 C 979.466 457.082, 982.093 459.966, 989.331 464.193 C 1001.105 471.070, 1008.899 479.447, 1014.837 491.606 C 1022.434 507.162, 1022.581 522.650, 1015.312 541.500 C 1011.312 551.874, 1011.332 555.881, 1015.416 562.052 C 1020.794 570.179, 1033.048 572.881, 1040.914 567.675 C 1045.975 564.327, 1051.056 554.237, 1054.600 540.500 C 1056.666 532.493, 1057.195 528.008, 1057.256 518 C 1057.389 496.341, 1052.609 480.485, 1040.327 461.843 C 1032.117 449.380, 1012.629 433.149, 1001.101 429.173 C 996.251 427.499, 991.996 427.720, 987.984 429.852 M 690.636 712.636 L 688 715.273 688 742.202 C 688 759.580, 688.383 769.848, 689.080 771.150 C 690.539 773.875, 696.531 776.262, 700 775.500 C 701.536 775.163, 703.627 773.965, 704.646 772.838 C 706.358 770.947, 706.500 768.655, 706.500 742.976 L 706.500 715.161 704.076 712.581 C 700.648 708.932, 694.315 708.958, 690.636 712.636 M 593.360 745.460 C 590.562 747.420, 588.625 752.371, 589.419 755.535 C 590.172 758.534, 629.566 798.207, 634.140 800.572 C 638.129 802.635, 642.287 801.637, 645.473 797.850 C 649.471 793.098, 648.859 789.807, 642.750 783.215 C 631.505 771.080, 605.382 745.797, 603.185 744.922 C 599.796 743.573, 595.738 743.795, 593.360 745.460 M 791.729 744.841 C 788.647 746.059, 749.290 785.886, 747.935 789.158 C 746.800 791.896, 746.880 792.737, 748.569 795.882 C 750.898 800.219, 754.950 802.390, 759.038 801.492 C 761.145 801.029, 768.240 794.593, 783.503 779.302 L 805 757.764 805 753.336 C 805 745.949, 798.863 742.020, 791.729 744.841 M 664.453 825.326 C 653.692 829.472, 649.709 834.694, 625.801 876 C 622.777 881.225, 617.249 890.675, 613.516 897 C 605.604 910.407, 605.245 911.037, 597.266 925.500 C 593.929 931.550, 588.904 940.473, 586.099 945.329 C 583.295 950.185, 581 954.312, 581 954.500 C 581 954.688, 578.702 958.815, 575.892 963.671 C 567.984 977.341, 559.360 995.027, 558.177 1000 C 556.977 1005.045, 555.580 1015.393, 553.992 1031 C 551.760 1052.939, 548.512 1079.741, 545.475 1101.282 C 543.425 1115.819, 540.205 1124.781, 534.977 1130.500 C 533.971 1131.600, 532.835 1133.761, 532.453 1135.301 C 531.830 1137.810, 532.475 1138.806, 538.629 1144.841 C 580.835 1186.230, 611.599 1215.746, 613.664 1216.834 C 615.057 1217.567, 617.224 1217.910, 618.480 1217.594 C 620.885 1216.991, 652.587 1185.883, 664.023 1172.905 C 678.279 1156.727, 683.988 1142.553, 686.942 1116 C 688.465 1102.307, 690.016 1047.100, 690.007 1006.872 C 689.999 968.445, 689.978 968.298, 683.455 961.784 C 671.029 949.374, 650.717 957.977, 645.170 978 C 644.636 979.925, 643.710 984.200, 643.111 987.500 C 642.512 990.800, 641.112 998.225, 640 1004 C 638.888 1009.775, 637.535 1016.975, 636.993 1020 C 631.709 1049.517, 626.888 1064.943, 621.314 1070.170 L 618.830 1072.500 616.877 1070.093 C 614.584 1067.265, 614.686 1065.991, 619.535 1037 C 620.409 1031.775, 621.523 1025.025, 622.009 1022 C 626.525 993.932, 630.131 976.284, 632.672 969.824 C 635.613 962.344, 640.363 956.486, 648.196 950.678 C 656.768 944.323, 660.646 940.584, 662.613 936.782 C 664.378 933.369, 682.695 878.390, 686.912 863.851 C 691.094 849.430, 691.152 841.209, 687.119 834.849 C 681.525 826.028, 672.487 822.231, 664.453 825.326 M 721.718 825.072 C 706.787 828.665, 701.840 840.557, 707.030 860.375 C 709.684 870.506, 728.454 926.713, 731.401 933.353 C 734.387 940.081, 737.996 944.243, 744.920 948.946 C 757.564 957.532, 763.741 967.829, 767.146 986 C 767.713 989.025, 768.608 993.750, 769.134 996.500 C 769.660 999.250, 770.492 1003.975, 770.983 1007 C 771.474 1010.025, 772.595 1016.775, 773.475 1022 C 780.598 1064.303, 780.837 1066.746, 778.177 1070.025 L 776.170 1072.500 773.644 1070.131 C 769.310 1066.067, 763.747 1049.622, 760.068 1030 C 759.397 1026.425, 758.460 1021.475, 757.984 1019 C 757.509 1016.525, 756.577 1011.350, 755.913 1007.500 C 750.722 977.406, 748.274 969.598, 742.188 963.728 C 735.994 957.754, 730.843 955.646, 723.963 956.270 C 716.472 956.949, 712.082 959.638, 707.948 966.081 L 704.724 971.106 705.393 1029.803 C 706.521 1128.735, 708.066 1139.832, 724.014 1163.500 C 730.515 1173.147, 763.184 1207.434, 773.740 1215.689 C 778.127 1219.119, 780.065 1218.409, 788.537 1210.265 C 792.408 1206.544, 810.059 1189.635, 827.763 1172.689 C 845.466 1155.743, 860.905 1140.538, 862.071 1138.900 C 864.053 1136.117, 864.086 1135.777, 862.572 1133.711 C 856.773 1125.796, 853.789 1120.324, 852.517 1115.276 C 850.659 1107.898, 846.442 1077.758, 842.965 1047 C 842.375 1041.775, 841.483 1033.900, 840.984 1029.500 C 840.484 1025.100, 839.552 1016.775, 838.912 1011 C 837.790 1000.884, 835.518 992.818, 832.011 986.500 C 831.096 984.850, 828.624 980.350, 826.519 976.500 C 824.414 972.650, 821.243 967.025, 819.472 964 C 817.702 960.975, 815.026 956.250, 813.526 953.500 C 807.636 942.703, 779.129 892.419, 771.007 878.500 C 770.044 876.850, 767.032 871.675, 764.313 867 C 748.161 839.233, 741.905 830.796, 734.877 827.310 C 729.118 824.453, 726.289 823.972, 721.718 825.072 M 498.500 1140.849 C 490.045 1146.038, 463.118 1172.826, 458.139 1181 C 453.783 1188.152, 455.748 1193.806, 467.872 1209 C 475.690 1218.798, 519.953 1263.801, 535 1277.251 C 553.013 1293.353, 565.861 1302, 571.771 1302 C 577.143 1302, 582.046 1298.230, 599.553 1280.639 C 619.971 1260.123, 623.075 1255.531, 621.063 1248.817 C 619.075 1242.179, 612.209 1235.109, 539.053 1164.361 C 525.665 1151.413, 514.879 1141.995, 511.316 1140.138 C 508.040 1138.431, 501.883 1138.773, 498.500 1140.849 M 882.092 1141.085 C 878.565 1143.235, 874.824 1146.538, 859.536 1161 C 818.680 1199.647, 777.870 1240.647, 775.694 1245.231 C 772.434 1252.102, 773.619 1256.332, 781.556 1266.155 C 788.105 1274.261, 808.819 1294.910, 814.011 1298.508 C 819.888 1302.580, 823.705 1302.724, 831.125 1299.153 C 840.986 1294.408, 852.336 1284.935, 880.432 1258 C 894.234 1244.768, 896.065 1242.909, 909.587 1228.398 C 915.685 1221.854, 922.565 1214.475, 924.875 1212 C 927.185 1209.525, 931.308 1204.200, 934.038 1200.166 C 938.298 1193.871, 939 1192.146, 939 1187.982 C 939 1183.572, 938.470 1182.466, 933.171 1175.816 C 926.212 1167.082, 904.862 1146.422, 898.314 1142.084 C 892.675 1138.349, 887.139 1138.008, 882.092 1141.085" stroke="none" fill="#108cd7" fill-rule="evenodd"/><path d="M 675.500 455.470 C 663.769 458.032, 651.592 465.468, 645.556 473.756 C 637.405 484.946, 633.619 497.125, 632.015 517.320 C 628.180 565.570, 625.158 578.623, 609.748 613.500 C 597.213 641.868, 594.120 654.513, 595.906 670.082 C 597.028 679.859, 598.766 684.525, 603.146 689.514 C 609.963 697.277, 616.864 698.973, 641.712 698.988 C 658.951 698.999, 661.516 698.779, 666.681 696.846 C 675.245 693.642, 682.052 686.433, 684.478 678 C 686.832 669.813, 687.081 651.692, 685.083 633.829 C 683.779 622.166, 683.800 620.954, 685.356 618.579 C 686.962 616.128, 687.486 616, 695.912 616 C 707.706 616, 709.546 617.318, 709.393 625.661 C 708.636 667.108, 708.644 667.528, 710.309 674.271 C 713.837 688.561, 719.485 694.902, 730.595 697.050 C 741.073 699.076, 770.048 698.897, 777.027 696.763 C 788.815 693.160, 795.983 683.011, 796.808 668.755 C 797.643 654.325, 794.282 641.912, 780.730 609.391 C 767.580 577.833, 763.830 563.504, 762.019 537.904 C 758.860 493.234, 758.265 489.920, 751.276 478.127 C 744.202 466.188, 733.313 458.443, 719.483 455.514 C 710.686 453.650, 683.951 453.624, 675.500 455.470 M 867.599 455.577 C 842.298 459.511, 824.435 468.273, 819.054 479.388 C 814.465 488.869, 814.460 502.345, 819.041 519.107 C 830.906 562.523, 830.666 590.450, 818.068 632.500 C 811.778 653.493, 810.776 658.085, 810.756 666.009 C 810.731 675.984, 813.462 682.397, 820.449 688.770 C 828.768 696.357, 835.073 698.185, 854.918 698.764 C 872.884 699.288, 879.201 698.426, 887.286 694.345 C 894.403 690.753, 899.972 685.219, 903.088 678.640 C 908.914 666.341, 907.741 652.877, 899.040 632.190 C 892.722 617.170, 891.025 611.714, 891.011 606.372 C 890.994 599.945, 891.730 599.716, 908.172 601.028 C 921.371 602.081, 923.288 602.009, 932.500 600.119 C 963.561 593.746, 983.954 571.059, 988.018 538.354 C 990.807 515.914, 983.328 494.366, 967.027 477.873 C 959.790 470.551, 957.063 468.554, 949 464.672 C 939.088 459.899, 928.377 456.724, 916.500 455.035 C 906.577 453.624, 878.134 453.940, 867.599 455.577 M 895.143 509.533 C 891.796 512.349, 890.462 515.805, 889.530 524.065 C 888.819 530.372, 890.377 541.895, 892.495 545.991 C 894.642 550.143, 900.182 552.363, 906.385 551.558 C 923.460 549.341, 931.470 527.972, 920.579 513.692 C 916.887 508.853, 912.485 507, 904.676 507 C 899.155 507, 897.691 507.389, 895.143 509.533 M 693.426 527.483 C 690.222 530.687, 687.248 537.690, 685.439 546.291 C 683.910 553.560, 683.526 566.707, 684.786 568.687 C 686.143 570.822, 690.997 572, 698.430 572 C 708.019 572, 710.584 570.183, 711.513 562.732 C 712.330 556.182, 710.497 542.403, 707.877 535.400 C 705.774 529.781, 701.178 525, 697.878 525 C 696.795 525, 694.792 526.117, 693.426 527.483" stroke="none" fill="#ffffff" fill-rule="evenodd"/></svg>